<svg width="764" height="205" viewBox="0 0 764 205" fill="none" xmlns="http://www.w3.org/2000/svg">
    <path
        d="M285.6 98.45C285.6 106.95 282.85 113.75 277.35 118.85C271.95 123.95 264.65 126.5 255.45 126.5C246.35 126.5 239.05 123.95 233.55 118.85C228.15 113.65 225.45 106.85 225.45 98.45V46.55C225.45 38.15 228.15 31.4 233.55 26.3C239.05 21.1 246.35 18.5 255.45 18.5C264.65 18.5 271.95 21.05 277.35 26.15C282.85 31.25 285.6 38.05 285.6 46.55V98.45ZM241.05 98.45C241.05 110.45 245.85 116.45 255.45 116.45C260.25 116.45 263.9 114.75 266.4 111.35C268.9 107.95 270.15 103.65 270.15 98.45V46.55C270.15 41.25 268.9 36.95 266.4 33.65C263.9 30.25 260.25 28.55 255.45 28.55C245.85 28.55 241.05 34.55 241.05 46.55V98.45ZM342.355 34.7V30.35H362.305V34.7L357.355 38.45V101.3C357.355 109.7 354.955 116 350.155 120.2C345.455 124.4 339.405 126.5 332.005 126.5C324.505 126.5 318.355 124.4 313.555 120.2C308.755 115.9 306.355 109.6 306.355 101.3V38.75L300.655 34.4V30.35H326.905V34.4L321.205 38.75V101.3C321.205 106.6 322.305 110.45 324.505 112.85C326.705 115.25 329.905 116.45 334.105 116.45C338.805 116.45 342.155 115.2 344.155 112.7C346.255 110.1 347.305 106.3 347.305 101.3V38.45L342.355 34.7ZM430.444 69.2C430.444 77.1 427.994 82.65 423.094 85.85C418.294 89.05 411.694 90.65 403.294 90.65H395.344V116.75L401.044 120.95V125H375.244V120.95L381.094 116.75V38.15L376.144 34.4V30.35H403.594C411.594 30.35 418.044 32.1 422.944 35.6C427.944 39 430.444 44.6 430.444 52.4V69.2ZM395.344 82.55H403.594C407.894 82.55 410.994 81.45 412.894 79.25C414.794 76.95 415.744 73.6 415.744 69.2V52.4C415.744 48 414.794 44.7 412.894 42.5C411.094 40.2 408.044 39.05 403.744 39.05H395.344V82.55ZM459.27 105.8C459.27 113.2 462.27 116.9 468.27 116.9C471.57 116.9 474.02 115.9 475.62 113.9C477.22 111.9 478.02 109.2 478.02 105.8V94.4C478.02 91.9 477.37 89.8 476.07 88.1C474.77 86.4 473.12 85.05 471.12 84.05C469.22 82.95 466.52 81.7 463.02 80.3C458.92 78.7 455.62 77.2 453.12 75.8C450.62 74.4 448.47 72.45 446.67 69.95C444.97 67.35 444.12 64.1 444.12 60.2V48.2C444.12 41.6 446.17 36.75 450.27 33.65C454.47 30.45 459.62 28.85 465.72 28.85C468.72 28.85 471.47 29.25 473.97 30.05C476.47 30.85 478.77 32.35 480.87 34.55H481.47L482.52 29.75H492.12V55.25H477.57V48.2C477.57 45 476.72 42.55 475.02 40.85C473.42 39.15 471.07 38.3 467.97 38.3C464.97 38.3 462.72 39.2 461.22 41C459.72 42.7 458.97 45.1 458.97 48.2V60.2C458.97 63.4 460.12 65.85 462.42 67.55C464.72 69.15 468.32 70.9 473.22 72.8C477.52 74.4 480.97 75.95 483.57 77.45C486.27 78.85 488.52 80.95 490.32 83.75C492.22 86.45 493.17 89.95 493.17 94.25V105.8C493.17 112.8 490.72 118 485.82 121.4C480.92 124.8 474.87 126.5 467.67 126.5C460.67 126.5 454.82 124.75 450.12 121.25C445.52 117.75 443.22 112.55 443.22 105.65V98.3H459.27V105.8ZM506.159 118.55C506.159 116.05 506.859 114.1 508.259 112.7C509.659 111.3 511.359 110.6 513.359 110.6C515.459 110.6 517.259 111.3 518.759 112.7C520.359 114.1 521.159 116.05 521.159 118.55C521.159 121.05 520.409 123 518.909 124.4C517.409 125.8 515.659 126.5 513.659 126.5C511.659 126.5 509.909 125.8 508.409 124.4C506.909 123 506.159 121.05 506.159 118.55ZM531.354 118.55C531.354 116.05 532.054 114.1 533.454 112.7C534.854 111.3 536.554 110.6 538.554 110.6C540.654 110.6 542.454 111.3 543.954 112.7C545.554 114.1 546.354 116.05 546.354 118.55C546.354 121.05 545.604 123 544.104 124.4C542.604 125.8 540.854 126.5 538.854 126.5C536.854 126.5 535.104 125.8 533.604 124.4C532.104 123 531.354 121.05 531.354 118.55ZM556.549 118.55C556.549 116.05 557.249 114.1 558.649 112.7C560.049 111.3 561.749 110.6 563.749 110.6C565.849 110.6 567.649 111.3 569.149 112.7C570.749 114.1 571.549 116.05 571.549 118.55C571.549 121.05 570.799 123 569.299 124.4C567.799 125.8 566.049 126.5 564.049 126.5C562.049 126.5 560.299 125.8 558.799 124.4C557.299 123 556.549 121.05 556.549 118.55Z"
        fill="#EDBC51" />
    <path
        d="M231.796 181.39L234.436 183.19V184.93H223.036V183.19L225.736 181.39V146.23L223.456 144.67V142.93H234.076V144.67L231.796 146.23V181.39ZM239.798 183.31L242.138 181.63V150.19L240.158 148.69V147.07H249.938V148.69L248.018 150.19V179.53C248.018 180.09 247.618 180.67 246.818 181.27V181.51H255.218L257.138 176.47H259.598L259.658 184.93H239.798V183.31ZM283.008 183.19V184.93H274.548V183.19L276.708 181.69V150.19L274.788 148.69V147.07H281.808C282.688 147.11 283.328 147.29 283.728 147.61C284.168 147.89 284.528 148.49 284.808 149.41L289.968 166.09L292.188 176.35H292.308C292.308 175.47 292.268 173.99 292.188 171.91L292.128 167.71V150.31L290.148 148.81V147.07H298.068V148.81L296.088 150.31V184.93H291.228C289.948 184.93 289.148 184.29 288.828 183.01L280.308 153.13L280.128 153.19L280.788 158.29V181.69L283.008 183.19ZM308.767 142.93C308.687 145.05 308.487 146.71 308.167 147.91C307.847 149.07 307.207 150.47 306.247 152.11C305.007 152.11 303.887 152.03 302.887 151.87C303.647 149.19 303.947 146.21 303.787 142.93C304.147 142.89 304.827 142.87 305.827 142.87C307.267 142.87 308.247 142.89 308.767 142.93ZM310.532 148.69V147.07H315.512C316.512 147.07 317.192 147.23 317.552 147.55C317.952 147.87 318.332 148.49 318.692 149.41L323.672 162.49L328.652 149.65L326.612 148.63V147.07H334.592V148.63L332.552 149.65L325.652 167.59V181.33L327.932 183.07V184.93H317.492V183.07L319.712 181.33V168.31L311.972 149.23L310.532 148.69ZM350.558 182.17L352.538 183.19V184.93H344.978V183.19L346.898 182.11L355.298 146.89H361.118L369.758 181.93L371.678 183.19V184.93H361.898V183.49L363.758 182.23L362.018 174.79H352.298L350.558 182.17ZM353.018 171.55H361.238L357.158 153.79H357.098L353.018 171.55ZM407.366 162.61C407.366 165.77 406.386 167.99 404.426 169.27C402.506 170.55 399.866 171.19 396.506 171.19H393.326V181.63L395.606 183.31V184.93H385.286V183.31L387.626 181.63V150.19L385.646 148.69V147.07H396.626C399.826 147.07 402.406 147.77 404.366 149.17C406.366 150.53 407.366 152.77 407.366 155.89V162.61ZM393.326 167.95H396.626C398.346 167.95 399.586 167.51 400.346 166.63C401.106 165.71 401.486 164.37 401.486 162.61V155.89C401.486 154.13 401.106 152.81 400.346 151.93C399.626 151.01 398.406 150.55 396.686 150.55H393.326V167.95ZM414.132 182.17L416.112 183.19V184.93H408.552V183.19L410.472 182.11L418.872 146.89H424.692L433.332 181.93L435.252 183.19V184.93H425.472V183.49L427.332 182.23L425.592 174.79H415.872L414.132 182.17ZM416.592 171.55H424.812L420.732 153.79H420.672L416.592 171.55ZM444.854 177.25C444.854 180.21 446.054 181.69 448.454 181.69C449.774 181.69 450.754 181.29 451.394 180.49C452.034 179.69 452.354 178.61 452.354 177.25V172.69C452.354 171.69 452.094 170.85 451.574 170.17C451.054 169.49 450.394 168.95 449.594 168.55C448.834 168.11 447.754 167.61 446.354 167.05C444.714 166.41 443.394 165.81 442.394 165.25C441.394 164.69 440.534 163.91 439.814 162.91C439.134 161.87 438.794 160.57 438.794 159.01V154.21C438.794 151.57 439.614 149.63 441.254 148.39C442.934 147.11 444.994 146.47 447.434 146.47C448.634 146.47 449.734 146.63 450.734 146.95C451.734 147.27 452.654 147.87 453.494 148.75H453.734L454.154 146.83H457.994V157.03H452.174V154.21C452.174 152.93 451.834 151.95 451.154 151.27C450.514 150.59 449.574 150.25 448.334 150.25C447.134 150.25 446.234 150.61 445.634 151.33C445.034 152.01 444.734 152.97 444.734 154.21V159.01C444.734 160.29 445.194 161.27 446.114 161.95C447.034 162.59 448.474 163.29 450.434 164.05C452.154 164.69 453.534 165.31 454.574 165.91C455.654 166.47 456.554 167.31 457.274 168.43C458.034 169.51 458.414 170.91 458.414 172.63V177.25C458.414 180.05 457.434 182.13 455.474 183.49C453.514 184.85 451.094 185.53 448.214 185.53C445.414 185.53 443.074 184.83 441.194 183.43C439.354 182.03 438.434 179.95 438.434 177.19V174.25H444.854V177.25ZM499.021 174.97C499.021 178.21 498.041 180.69 496.081 182.41C494.121 184.09 491.501 184.93 488.221 184.93H476.401V183.31L478.681 181.63V150.43L476.701 148.69V147.07H488.221C491.341 147.07 493.921 147.89 495.961 149.53C498.001 151.17 499.021 153.65 499.021 156.97V174.97ZM484.621 179.35C484.621 179.83 484.521 180.21 484.321 180.49C484.161 180.73 483.841 180.91 483.361 181.03L483.421 181.39H488.221C491.501 181.39 493.141 179.25 493.141 174.97V156.85C493.141 152.65 491.501 150.55 488.221 150.55H484.621V179.35ZM505.697 183.31L508.037 181.63V150.01L506.057 148.51V147.07H525.377V155.53H522.557L520.997 150.43H513.917V164.41H518.837L520.337 161.47H522.017V170.59H520.337L518.837 167.83H513.917V179.53C513.917 180.01 513.837 180.37 513.677 180.61C513.517 180.85 513.197 181.05 512.717 181.21V181.51H521.657L523.577 176.47H526.097V184.93H505.697V183.31ZM543.431 184.93V183.31L545.771 181.63V150.19L543.791 148.69V147.07H555.611C558.411 147.07 560.571 147.59 562.091 148.63C563.611 149.63 564.371 151.43 564.371 154.03V159.49C564.371 160.81 564.091 161.91 563.531 162.79C562.971 163.67 562.071 164.23 560.831 164.47C563.951 165.19 565.511 167.33 565.511 170.89V177.25C565.511 180.17 564.631 182.19 562.871 183.31C561.111 184.39 558.711 184.93 555.671 184.93H543.431ZM558.491 154.03C558.491 152.91 558.231 152.03 557.711 151.39C557.231 150.75 556.451 150.43 555.371 150.43H551.471V163.51H555.311C556.471 163.51 557.291 163.13 557.771 162.37C558.251 161.57 558.491 160.61 558.491 159.49V154.03ZM559.631 170.89C559.631 169.33 559.291 168.19 558.611 167.47C557.931 166.71 556.791 166.33 555.191 166.33H551.471V179.47C551.471 179.99 551.391 180.39 551.231 180.67C551.071 180.91 550.751 181.11 550.271 181.27V181.57H555.671C557.191 181.57 558.231 181.25 558.791 180.61C559.351 179.93 559.631 178.81 559.631 177.25V170.89ZM581.994 183.31V184.93H571.734V183.31L574.014 181.63V150.19L572.094 148.69V147.07H581.694V148.69L579.774 150.19V181.63L581.994 183.31ZM587.611 183.31L589.951 181.63V150.01L587.971 148.51V147.07H607.291V155.53H604.471L602.911 150.43H595.831V164.41H600.751L602.251 161.47H603.931V170.59H602.251L600.751 167.83H595.831V179.53C595.831 180.01 595.751 180.37 595.591 180.61C595.431 180.85 595.111 181.05 594.631 181.21V181.51H603.571L605.491 176.47H608.011V184.93H587.611V183.31ZM601.351 142.75C601.231 143.07 600.991 143.29 600.631 143.41H596.971L591.511 137.35C591.551 137.19 591.791 137.01 592.231 136.81H598.471L601.351 142.75ZM626.413 173.05C625.853 171.57 625.273 170.61 624.673 170.17C624.073 169.69 623.013 169.45 621.493 169.45V181.63L623.773 183.31V184.93H613.453V183.31L615.733 181.63V150.19L613.813 148.69V147.07H624.793C627.993 147.07 630.573 147.77 632.533 149.17C634.493 150.53 635.473 152.77 635.473 155.89V160.81C635.473 163.01 634.913 164.79 633.793 166.15C632.713 167.51 631.273 168.37 629.473 168.73C630.233 169.17 630.813 169.65 631.213 170.17C631.653 170.69 632.033 171.39 632.353 172.27L634.873 179.23C635.233 180.23 635.653 181.03 636.133 181.63C636.613 182.23 637.233 182.47 637.993 182.35V184.57C636.913 185.05 635.533 185.29 633.853 185.29C632.533 185.29 631.593 184.97 631.033 184.33C630.513 183.65 630.073 182.85 629.713 181.93C629.393 181.01 629.173 180.37 629.053 180.01L626.413 173.05ZM621.433 166.15H624.733C626.453 166.15 627.693 165.71 628.453 164.83C629.213 163.91 629.593 162.57 629.593 160.81V155.89C629.593 154.13 629.233 152.81 628.513 151.93C627.793 151.01 626.553 150.55 624.793 150.55H621.433V166.15ZM642.513 183.31L644.853 181.63V150.01L642.873 148.51V147.07H662.193V155.53H659.373L657.813 150.43H650.733V164.41H655.653L657.153 161.47H658.833V170.59H657.153L655.653 167.83H650.733V179.53C650.733 180.01 650.653 180.37 650.493 180.61C650.333 180.85 650.013 181.05 649.533 181.21V181.51H658.473L660.393 176.47H662.913V184.93H642.513V183.31ZM690.627 183.31V184.93H680.367V183.31L682.647 181.63V150.19L680.727 148.69V147.07H690.327V148.69L688.407 150.19V181.63L690.627 183.31ZM712.743 157.33V156.31C712.743 154.43 712.383 152.95 711.663 151.87C710.983 150.75 709.763 150.19 708.003 150.19C706.683 150.19 705.563 150.69 704.643 151.69C703.723 152.69 703.263 154.29 703.263 156.49V175.45C703.263 179.69 704.883 181.81 708.123 181.81C709.963 181.81 711.243 181.33 711.963 180.37C712.683 179.37 713.043 177.87 713.043 175.87V173.83H718.983V175.93C718.983 179.13 717.983 181.53 715.983 183.13C714.023 184.73 711.423 185.53 708.183 185.53C704.983 185.53 702.383 184.69 700.383 183.01C698.383 181.29 697.383 178.77 697.383 175.45V156.49C697.383 153.29 698.303 150.83 700.143 149.11C702.023 147.35 704.583 146.47 707.823 146.47C710.623 146.47 712.723 147.15 714.123 148.51H714.243L714.723 146.71H718.623V157.33H712.743ZM734.807 183.31V184.93H724.547V183.31L726.827 181.63V150.19L724.907 148.69V147.07H734.507V148.69L732.587 150.19V181.63L734.807 183.31ZM754.115 176.29L753.275 142.93H759.215L758.735 176.29H754.115ZM753.335 182.53C753.335 181.57 753.615 180.83 754.175 180.31C754.735 179.79 755.415 179.53 756.215 179.53C757.055 179.53 757.775 179.81 758.375 180.37C759.015 180.89 759.335 181.61 759.335 182.53C759.335 183.45 759.035 184.19 758.435 184.75C757.835 185.27 757.135 185.53 756.335 185.53C755.535 185.53 754.835 185.27 754.235 184.75C753.635 184.19 753.335 183.45 753.335 182.53Z"
        fill="#EDBC51" />
    <path d="M50.4983 196.25L6.25213 22.2288L147.391 5.62583L146.54 184.953L50.4983 196.25Z" stroke="#EDBC51"
        stroke-width="10" />
</svg>